HIERARCHY
ROOT hip
{
	OFFSET 0.000000 0.000000 0.000000
	CHANNELS 6 Xposition Yposition Zposition Zrotation Yrotation Xrotation 
	JOINT lhipjoint
	{
		OFFSET 0.000000 0.000000 0.000000
		CHANNELS 3 Zrotation Yrotation Xrotation
		JOINT lfemur
		{
			OFFSET 1.363060 -1.794630 0.839290
			CHANNELS 3 Zrotation Yrotation Xrotation
			JOINT ltibia
			{
				OFFSET 2.448110 -6.726130 0.000000
				CHANNELS 3 Zrotation Yrotation Xrotation
				JOINT lfoot
				{
					OFFSET 2.562200 -7.039590 0.000000
					CHANNELS 3 Zrotation Yrotation Xrotation
					JOINT ltoes
					{
						OFFSET 0.157640 -0.433110 2.322550
						CHANNELS 3 Zrotation Yrotation Xrotation
						End Site
						{
							OFFSET 0.000000 0.000000 0.000000
						}
					}
				}
			}
		}
	}
	JOINT rhipjoint
	{
		OFFSET 0.000000 0.000000 0.000000
		CHANNELS 3 Zrotation Yrotation Xrotation
		JOINT rfemur
		{
			OFFSET -1.305520 -1.794630 0.839290
			CHANNELS 3 Zrotation Yrotation Xrotation
			JOINT rtibia
			{
				OFFSET -2.542530 -6.985550 0.000000
				CHANNELS 3 Zrotation Yrotation Xrotation
				JOINT rfoot
				{
					OFFSET -2.568260 -7.056230 0.000000
					CHANNELS 3 Zrotation Yrotation Xrotation
					JOINT rtoes
					{
						OFFSET -0.164730 -0.452590 2.363150
						CHANNELS 3 Zrotation Yrotation Xrotation
						End Site
						{
							OFFSET 0.000000 0.000000 0.000000
						}
					}
				}
			}
		}
	}
	JOINT lowerback
	{
		OFFSET 0.000000 0.000000 0.000000
		CHANNELS 3 Zrotation Yrotation Xrotation
		JOINT upperback
		{
			OFFSET 0.028270 2.035590 -0.193380
			CHANNELS 3 Zrotation Yrotation Xrotation
			JOINT thorax
			{
				OFFSET 0.056720 2.048850 -0.042750
				CHANNELS 3 Zrotation Yrotation Xrotation
				JOINT lowerneck
				{
					OFFSET 0.000000 0.000000 0.000000
					CHANNELS 3 Zrotation Yrotation Xrotation
					JOINT upperneck
					{
						OFFSET -0.054170 1.746240 0.172020
						CHANNELS 3 Zrotation Yrotation Xrotation
						JOINT head
						{
							OFFSET 0.104070 1.761360 -0.123970
							CHANNELS 3 Zrotation Yrotation Xrotation
							End Site
							{
								OFFSET 0.000000 0.000000 0.000000
							}
						}
					}
				}
				JOINT lclavicle
				{
					OFFSET 0.000000 0.000000 0.000000
					CHANNELS 3 Zrotation Yrotation Xrotation
					JOINT lhumerus
					{
						OFFSET 3.362410 1.200890 -0.311210
						CHANNELS 3 Zrotation Yrotation Xrotation
						JOINT lradius
						{
							OFFSET 4.983000 -0.000000 -0.000000
							CHANNELS 3 Zrotation Yrotation Xrotation
							JOINT lwrist
							{
								OFFSET 3.483560 -0.000000 -0.000000
								CHANNELS 3 Zrotation Yrotation Xrotation
								JOINT lhand
								{
									OFFSET 0.000000 0.000000 0.000000
									CHANNELS 3 Zrotation Yrotation Xrotation
									JOINT lfingers
									{
										OFFSET 0.715260 -0.000000 -0.000000
										CHANNELS 3 Zrotation Yrotation Xrotation
										End Site
										{
											OFFSET 0.000000 0.000000 0.000000
										}
									}
								}
								JOINT lthumb
								{
									OFFSET 0.000000 0.000000 0.000000
									CHANNELS 3 Zrotation Yrotation Xrotation
									End Site
									{
										OFFSET 0.000000 0.000000 0.000000
									}
								}
							}
						}
					}
				}
				JOINT rclavicle
				{
					OFFSET 0.000000 0.000000 0.000000
					CHANNELS 3 Zrotation Yrotation Xrotation
					JOINT rhumerus
					{
						OFFSET -3.136600 1.374050 -0.404650
						CHANNELS 3 Zrotation Yrotation Xrotation
						JOINT rradius
						{
							OFFSET -5.241900 -0.000000 -0.000000
							CHANNELS 3 Zrotation Yrotation Xrotation
							JOINT rwrist
							{
								OFFSET -3.444170 -0.000000 -0.000000
								CHANNELS 3 Zrotation Yrotation Xrotation
								JOINT rhand
								{
									OFFSET 0.000000 0.000000 0.000000
									CHANNELS 3 Zrotation Yrotation Xrotation
									JOINT rfingers
									{
										OFFSET -0.622530 -0.000000 -0.000000
										CHANNELS 3 Zrotation Yrotation Xrotation
										End Site
										{
											OFFSET 0.000000 0.000000 0.000000
										}
									}
								}
								JOINT rthumb
								{
									OFFSET 0.000000 0.000000 0.000000
									CHANNELS 3 Zrotation Yrotation Xrotation
									End Site
									{
										OFFSET 0.000000 0.000000 0.000000
									}
								}
							}
						}
					}
				}
			}
		}
	}
}
MOTION
Frames: 6
Frame Time: 0.008333
1.974840 15.804184 16.049539 -3.237217 14.452941 -6.042234 -4.604615 -3.703901 -0.616091 -13.896223 -16.270662 3.545691 3.443133 10.983716 29.302117 0.879796 4.038809 -21.882067 0.423800 -4.178000 -11.578000 3.154548 5.140188 -3.137672 26.584357 13.262561 16.226651 -2.613962 -7.221001 14.163359 1.747079 -23.251163 -30.636239 -0.336100 3.725600 -10.306000 6.162145 1.498966 12.267564 -0.519169 2.771893 -6.177509 -11.036878 0.433374 -4.983357 -4.398272 -5.261767 -6.331457 7.838174 -8.194801 14.560170 1.690300 -3.593100 4.137800 -6.583814 -5.150092 2.505207 -77.505157 -2.550861 -9.912303 4.717782 -12.312961 -1.086554 0.444114 0.645099 40.746927 11.782812 -5.422827 -1.303300 -7.125000 0.000000 0.000000 -10.954100 23.648000 5.742000 9.772019 4.012356 1.362099 -19.435481 63.699140 -64.097321 4.408725 15.014992 -0.124140 1.075703 -0.527901 34.838842 0.458115 12.706113 -0.158400 7.125000 0.000000 0.000000 18.224800 -17.785700 12.433600 
1.975019 15.804721 16.053570 -3.236303 14.545704 -6.016513 -4.604509 -3.702274 -0.615050 -13.873643 -16.258071 3.493136 3.444256 10.980745 29.302583 0.881660 3.955232 -21.828937 0.428100 -4.199100 -11.637300 3.153701 5.137854 -3.135068 26.620580 13.325616 16.253225 -2.615708 -7.224187 14.174988 1.745746 -23.326051 -30.793890 -0.333600 3.711900 -10.267400 6.149836 1.513588 12.320747 -0.523579 2.791053 -6.183128 -11.054065 0.438005 -5.050248 -4.358929 -5.293582 -6.308416 7.823262 -8.234782 14.508503 1.672700 -3.613200 4.120100 -6.585210 -5.165600 2.519942 -77.450652 -2.427277 -10.671253 4.642347 -12.149712 -1.070649 0.445295 0.636837 41.366029 11.765795 -5.382816 -1.291900 -7.125000 0.000000 0.000000 -10.968300 23.695100 5.737600 9.770449 4.041136 1.300243 -19.199066 63.664392 -64.035587 4.587455 14.639597 -0.097672 1.080128 -0.522998 35.294969 0.293829 12.670950 -0.193100 7.125000 0.000000 0.000000 18.121000 -17.831500 12.335500 
1.976184 15.805169 16.057063 -3.234995 14.633053 -5.999610 -4.605776 -3.700191 -0.613637 -13.874825 -16.284129 3.469222 3.446314 10.979737 29.308190 0.882133 3.916362 -21.799785 0.432100 -4.218300 -11.691700 3.153692 5.136540 -3.133933 26.621709 13.315350 16.259131 -2.615059 -7.224567 14.174072 1.744736 -23.360188 -30.869757 -0.329300 3.688100 -10.200800 6.148327 1.521736 12.384327 -0.525607 2.804029 -6.189738 -11.066473 0.438544 -5.124707 -4.340495 -5.318245 -6.273457 7.807072 -8.265189 14.466688 1.660900 -3.629700 4.104200 -6.587080 -5.179953 2.532889 -77.402316 -2.296991 -11.486734 4.559125 -11.971585 -1.053597 0.448651 0.627025 42.041282 11.751804 -5.374394 -1.287200 -7.125000 0.000000 0.000000 -10.979500 23.710200 5.739800 9.769098 4.064405 1.245665 -18.996980 63.666615 -64.406806 4.794049 14.204802 -0.070653 1.084668 -0.525169 36.130312 0.134990 12.664119 -0.227400 7.125000 0.000000 0.000000 18.016200 -17.852400 12.247600 
1.976900 15.805438 16.061094 -3.221618 14.712144 -5.978418 -4.606597 -3.697498 -0.612135 -13.883559 -16.309613 3.448178 3.448362 10.978909 29.313424 0.884335 3.864328 -21.778704 0.432600 -4.220600 -11.698100 3.154370 5.137098 -3.133514 26.621930 13.323429 16.276349 -2.614866 -7.225814 14.175894 1.744599 -23.403090 -30.953461 -0.324400 3.660900 -10.124500 6.123518 1.532328 12.432787 -0.528570 2.817667 -6.195702 -11.072921 0.439878 -5.185385 -4.287518 -5.343192 -6.240884 7.766016 -8.293441 14.431807 1.630500 -3.644000 4.085000 -6.588920 -5.187548 2.544133 -77.327222 -2.143814 -12.268524 4.483671 -11.807274 -1.038119 0.452012 0.616837 42.681165 11.732373 -5.382283 -1.285300 -7.125000 0.000000 0.000000 -10.994300 23.709100 5.748100 9.771564 4.083213 1.200764 -18.852598 63.696644 -64.844341 4.991864 13.782378 -0.046720 1.088012 -0.524233 36.966124 -0.066760 12.618181 -0.269200 7.125000 0.000000 0.000000 17.888700 -17.911500 12.126900 
1.978154 15.805617 16.065125 -3.219020 14.777885 -5.950890 -4.605931 -3.694753 -0.611045 -13.873555 -16.301915 3.399838 3.450214 10.977668 29.318775 0.885277 3.811179 -21.742488 0.437200 -4.242700 -11.760400 3.153677 5.135663 -3.132519 26.624880 13.331493 16.270856 -2.615462 -7.227676 14.182098 1.746632 -23.440109 -31.005862 -0.321400 3.644300 -10.078100 6.118228 1.541761 12.459289 -0.532037 2.830751 -6.199046 -11.092868 0.442075 -5.220181 -4.229943 -5.363260 -6.205310 7.735924 -8.316881 14.374807 1.604500 -3.656500 4.052900 -6.591265 -5.188624 2.553623 -77.251010 -2.044224 -13.299390 4.390158 -11.593310 -1.018091 0.455861 0.603047 43.537406 11.692875 -5.386550 -1.279800 -7.125000 0.000000 0.000000 -11.024200 23.714800 5.762800 9.773720 4.090975 1.170193 -18.716675 63.760337 -65.268394 5.138772 13.467774 -0.033073 1.085933 -0.524583 37.798848 -0.232958 12.521250 -0.301100 7.125000 0.000000 0.000000 17.791800 -18.015700 12.010900 
1.978871 15.806334 16.069425 -3.205682 14.846432 -5.935051 -4.606191 -3.693415 -0.609536 -13.875814 -16.286417 3.370068 3.451170 10.976572 29.320732 0.886731 3.751588 -21.708077 0.445000 -4.280300 -11.866700 3.154718 5.136715 -3.132293 26.629781 13.347837 16.293165 -2.615834 -7.232171 14.193646 1.742129 -23.473010 -31.108278 -0.320200 3.637600 -10.059200 6.100017 1.550898 12.500806 -0.535329 2.842742 -6.203510 -11.106782 0.443303 -5.268146 -4.176556 -5.382174 -6.165837 7.708466 -8.340372 14.341386 1.580100 -3.668200 4.030600 -6.593133 -5.192991 2.563183 -77.174691 -1.910468 -14.287154 4.313883 -11.404902 -1.001856 0.460908 0.589512 44.374253 11.664536 -5.416199 -1.280900 -7.125000 0.000000 0.000000 -11.045100 23.693600 5.779700 9.774550 4.102970 1.139178 -18.474686 63.815861 -65.520031 5.214960 13.294350 -0.031042 1.074815 -0.534569 38.628261 -0.228853 12.391701 -0.295700 7.125000 0.000000 0.000000 17.811500 -18.141500 11.973200 
